<svg width="144" height="144" viewBox="0 0 144 144" fill="none" xmlns="http://www.w3.org/2000/svg">
<path fill-rule="evenodd" clip-rule="evenodd" d="M60.1034 120.022C60.1346 120.759 60.055 121.478 59.8998 122.206C59.6271 123.485 59.1004 124.839 58.3549 126.09C56.2355 129.645 52.6353 132.018 48 132.018C37.0806 132.018 32.795 126.661 27.4291 113.246C23.795 104.161 22.0806 102.018 18 102.018L18 90.0176C28.9194 90.0176 33.205 95.3746 38.5709 108.789C42.205 117.875 43.9194 120.018 48 120.018C48 118.277 47.9762 116.734 47.926 114.646C47.8084 109.751 47.7949 108.752 48.0084 107.443C48.0937 104.587 48.8312 102.56 50.31 100.548C36.9191 97.6334 27.8875 91.6131 22.7038 81.8485L20.762 77.2819C18.8703 71.8452 18 65.6852 18 58.571C18 50.3776 20.4981 43.0518 25.1641 36.928C23.7086 31.1072 23.9079 23.9953 27.1219 15.9636L28.172 13.3392L30.8644 12.478C31.2249 12.3627 31.6631 12.2585 32.1779 12.1777C37.4206 11.3549 44.8806 13.3181 54.6333 19.5651C60.3826 18.2323 66.4371 17.5595 72.5326 17.5595C77.9798 17.5595 83.3967 18.1086 88.5698 19.1913C98.0584 13.2493 105.313 11.3856 110.415 12.1788C110.924 12.2579 111.358 12.36 111.715 12.4734L114.424 13.3325L115.476 15.973C118.287 23.0334 118.77 29.5402 117.747 35.2338C123.111 41.67 126 49.5827 126 58.571C126 66.1486 125.457 71.8466 123.897 77.3898L122.249 81.91C117.938 91.6643 108.429 97.752 93.7652 100.652C95.2893 102.762 96 104.904 96 108.018V114.018C96 116.925 96 117.015 95.9934 120.018C96.007 120.233 96.025 120.339 96.0446 120.405C96.0398 120.406 96 132.018 96 132.018C90.8892 132.018 87.0892 129.525 85.2203 125.594C84.2513 123.555 83.9618 121.609 84 119.932V108.018C84 107.515 83.9825 107.485 82.7574 106.26C79.4825 102.985 78 100.515 78 96.0176V90.59L83.4004 90.0476C99.4761 88.4332 108.219 83.9689 111.118 77.4471L112.473 73.7436C113.551 69.8713 114 65.1556 114 58.571C114 51.5744 111.557 45.7948 106.938 41.1772L104.399 38.6391L105.435 35.2018C106.356 32.1481 106.575 28.5347 105.601 24.4134C105.439 24.4544 105.271 24.4991 105.096 24.5477C101.883 25.4421 97.8722 27.3613 93.0387 30.5922L90.8341 32.0658L88.2603 31.4276C83.2823 30.1932 77.9331 29.5595 72.5326 29.5595C66.5272 29.5595 60.5908 30.3235 55.1068 31.8186L52.4304 32.5482L50.1409 30.982C45.1418 27.5621 40.9887 25.5283 37.6585 24.5782C37.4207 24.5104 37.1942 24.4497 36.979 24.3956C35.8171 29.1655 36.2767 33.0844 37.4534 36.025L38.8643 39.5509L36.2813 42.3349C32.1654 46.7712 30 52.1698 30 58.571C30 64.4315 30.6861 69.2877 31.9433 72.9458L33.5134 76.6624C37.4384 84.0275 45.7752 88.4585 60.6395 90.0518L66 90.6264V96.0176C66 100.515 64.5175 102.985 61.2426 106.26C60.0175 107.485 60 107.515 60 108.018L59.8966 109.127C59.8281 109.491 59.8281 110.43 59.9225 114.358C59.9659 116.164 59.9907 117.594 59.9978 119.088C60.0695 119.398 60.0803 119.597 60.1034 120.022Z" fill="black"/>
</svg>
