<svg width="56" height="56" viewBox="0 0 56 56" fill="none" xmlns="http://www.w3.org/2000/svg">
<path fill-rule="evenodd" clip-rule="evenodd" d="M21.8314 50.4028C21.8476 50.7467 21.8063 51.0823 21.7258 51.422C21.5844 52.0189 21.3113 52.6505 20.9248 53.2341C19.8258 54.893 17.959 56 15.5556 56C9.89364 56 7.67149 53.5004 4.88918 47.2412C3.00482 43.002 2.11586 42.0021 0 42.0021L0 36.4029C5.66192 36.4029 7.88407 38.9024 10.6664 45.1617C12.5507 49.4009 13.4397 50.4008 15.5556 50.4008C15.5556 49.5885 15.5432 48.8689 15.5172 47.8944C15.4562 45.6106 15.4492 45.1443 15.5599 44.5337C15.6042 43.2009 15.9866 42.2552 16.7533 41.3165C9.80993 39.9564 5.12686 37.1473 2.43903 32.5912L1.43216 30.4604C0.451252 27.9237 0 25.0494 0 21.7299C0 17.9069 1.2953 14.4887 3.71472 11.6314C2.95999 8.91536 3.06336 5.597 4.72985 1.84942L5.27439 0.624858L6.67043 0.223015C6.85735 0.169213 7.08457 0.120621 7.35152 0.0829181C10.0699 -0.301017 13.9381 0.615012 18.995 3.52984C21.9762 2.90799 25.1155 2.59403 28.2762 2.59403C31.1006 2.59403 33.9094 2.85026 36.5917 3.35542C41.5117 0.582892 45.2736 -0.286682 47.9189 0.0834103C48.1828 0.120329 48.4077 0.167991 48.593 0.220888L49.9978 0.621748L50.543 1.85377C52.0008 5.14816 52.251 8.18422 51.7206 10.8408C54.5019 13.844 56 17.536 56 21.7299C56 25.2656 55.7185 27.9243 54.9093 30.5108L54.0553 32.6199C51.8195 37.1712 46.889 40.0117 39.2857 41.3646C40.0759 42.3493 40.4444 43.3489 40.4444 44.8016V47.6012C40.4444 48.9579 40.4444 48.9997 40.441 50.4008C40.4481 50.5014 40.4574 50.5507 40.4676 50.5814C40.4651 50.5822 40.4444 56 40.4444 56C37.7944 56 35.824 54.837 34.8549 53.0026C34.3525 52.0514 34.2024 51.1432 34.2222 50.3611V44.8016C34.2222 44.5669 34.2132 44.5533 33.5779 43.9817C31.8798 42.4536 31.1111 41.3007 31.1111 39.2025V36.6699L33.9113 36.4169C42.2468 35.6636 46.7803 33.5805 48.2834 30.5375L48.9859 28.8095C49.5448 27.0027 49.7778 24.8023 49.7778 21.7299C49.7778 18.4654 48.5113 15.7686 46.116 13.614L44.7994 12.4297L45.3368 10.8259C45.8141 9.40106 45.9276 7.71508 45.4226 5.79206C45.3386 5.8112 45.2514 5.83205 45.1609 5.85473C43.495 6.27206 41.4152 7.16755 38.9089 8.67507L37.7658 9.36264L36.4313 9.06486C33.8501 8.4889 31.0764 8.19321 28.2762 8.19321C25.1622 8.19321 22.0841 8.54973 19.2405 9.24732L17.8528 9.58776L16.6657 8.85695C14.0735 7.26122 11.9201 6.31226 10.1933 5.86896C10.07 5.8373 9.95257 5.80898 9.84096 5.78374C9.23851 8.00937 9.47679 9.83791 10.0869 11.21L10.8185 12.8552L9.4792 14.1542C7.34501 16.2242 6.22222 18.7432 6.22222 21.7299C6.22222 24.4645 6.57796 26.7303 7.22986 28.4372L8.04399 30.1713C10.0792 33.6079 14.402 35.6754 22.1094 36.4188L24.8889 36.6869V39.2025C24.8889 41.3007 24.1202 42.4536 22.4221 43.9817C21.7868 44.5533 21.7778 44.5669 21.7778 44.8016L21.7242 45.3192C21.6887 45.4889 21.6887 45.9272 21.7376 47.7599C21.7601 48.6029 21.7729 49.27 21.7766 49.9672C21.8138 50.1115 21.8194 50.2046 21.8314 50.4028Z" fill="black"/>
</svg>
