<svg width="56" height="56" viewBox="0 0 56 56" fill="none" xmlns="http://www.w3.org/2000/svg">
<path fill-rule="evenodd" clip-rule="evenodd" d="M24.8119 17.7471C26.2626 15.7923 26.7828 13.7321 25.1421 11.9136C21.4602 6.76217 18.9841 3.57655 17.4309 2.04243C14.4782 -0.874126 9.6208 -0.479616 7.06348 2.03994C5.68993 3.39322 5.22492 3.85794 3.81458 5.2903C-4.04124 13.1495 0.749642 29.7637 13.4856 42.5109C26.2186 55.2551 42.8329 60.0481 50.7052 52.1722C52.0066 50.9177 53.1085 49.8153 53.9775 48.8969C56.4836 46.2484 56.8641 41.6057 53.961 38.5896C52.4727 37.0433 49.4346 34.6869 44.0659 30.847C42.4216 29.3769 40.472 29.6955 38.6846 30.868C37.8248 31.432 37.1991 32.0026 36.0176 33.1851L33.8721 35.3316C33.5895 35.6143 29.7524 33.6929 26.0277 29.9648C22.3009 26.2348 20.3806 22.3978 20.6618 22.1166C21.2418 21.5367 21.9575 20.8208 22.8088 19.9687C23.1837 19.5935 23.3629 19.4119 23.5927 19.1703C24.0715 18.6672 24.468 18.2105 24.8119 17.7471ZM37.8297 39.291L39.9756 37.1442C40.6258 36.4934 41.0472 36.0932 41.3901 35.8173C46.0931 39.1943 48.8168 41.3178 49.9294 42.4736C50.5973 43.1676 50.4936 44.4339 49.9129 45.0476C49.1093 45.8968 48.0653 46.9413 46.7841 48.1769C41.6936 53.2691 28.2821 49.4001 17.444 38.5524C6.60244 27.7013 2.73491 14.2892 7.78698 9.23481C9.19164 7.80834 9.63668 7.36357 10.9906 6.02961C11.4983 5.52945 12.8811 5.41714 13.4986 6.02712C14.6944 7.20824 16.9126 10.0481 20.1756 14.593C20.0067 14.8027 19.7957 15.0397 19.539 15.3095C19.3505 15.5076 19.1935 15.6667 18.8503 16.0102C17.9996 16.8616 17.2847 17.5769 16.7054 18.156C13.0566 21.8042 16.1641 28.0132 22.0692 33.9234C27.9702 39.8297 34.1821 42.9403 37.8297 39.291Z" fill="black"/>
</svg>
