<svg width="144" height="144" viewBox="0 0 144 144" fill="none" xmlns="http://www.w3.org/2000/svg">
<path fill-rule="evenodd" clip-rule="evenodd" d="M65.1391 50.028C68.2478 45.8387 69.3625 41.4236 65.8467 37.5264C57.957 26.4866 52.6509 19.6595 49.3227 16.3718C42.9954 10.1214 32.5868 10.9669 27.1068 16.3665C24.1635 19.2666 23.167 20.2626 20.1449 23.3322C3.31096 40.1752 13.5771 75.7806 40.8684 103.099C68.1535 130.411 103.755 140.682 120.625 123.804C123.413 121.115 125.775 118.753 127.637 116.784C133.007 111.108 133.822 101.159 127.602 94.6951C124.412 91.3812 117.902 86.3314 106.398 78.1022C102.874 74.9516 98.6965 75.6344 94.8663 78.1472C93.0239 79.356 91.6831 80.5787 89.1513 83.113L84.5539 87.713C83.9483 88.3188 75.726 84.2011 67.7443 76.2116C59.7584 68.2178 55.6434 59.9949 56.2461 59.3923C57.489 58.1495 59.0225 56.6152 60.8468 54.7891C61.65 53.9851 62.0341 53.5958 62.5265 53.0782C63.5526 51.9998 64.4021 51.0212 65.1391 50.028ZM93.0345 96.1982L97.6329 91.5973C99.0262 90.2026 99.9293 89.345 100.664 88.7537C110.742 95.9909 116.578 100.542 118.962 103.019C120.394 104.506 120.171 107.22 118.927 108.535C117.205 110.355 114.968 112.593 112.223 115.241C101.314 126.154 72.5755 117.863 49.3509 94.6152C26.119 71.3605 17.8314 42.6173 28.6573 31.7855C31.6672 28.7284 32.6209 27.7753 35.5222 24.9165C36.61 23.8446 39.5732 23.6039 40.8965 24.9111C43.4589 27.4424 48.2121 33.5285 55.2043 43.2685C54.8424 43.7179 54.3903 44.2258 53.8401 44.804C53.4363 45.2284 53.0998 45.5694 52.3644 46.3056C50.5415 48.1303 49.0094 49.6632 47.7682 50.9043C39.9493 58.7225 46.6082 72.0289 59.2619 84.695C71.907 97.3525 85.2182 104.019 93.0345 96.1982Z" fill="black"/>
</svg>
