<svg width="144" height="144" viewBox="0 0 144 144" fill="none" xmlns="http://www.w3.org/2000/svg">
<path fill-rule="evenodd" clip-rule="evenodd" d="M132 71.9948C132 61.8999 125.218 53.9948 114 53.9948H95.5619C95.6156 53.8475 95.6712 53.6961 95.7287 53.5404C95.8955 53.0894 96.3655 51.8507 96.8219 50.6477L96.8242 50.6419L96.8283 50.631C97.23 49.5721 97.6201 48.5439 97.7825 48.1082C98.9233 45.0461 99.7558 42.5789 100.429 40.1356C101.447 36.4426 102 33.1154 102 29.9948C102 21.1627 96.5512 15.6771 88.4897 13.3297C84.8537 12.271 81.6888 11.9942 78 11.9948H75.123L73.3216 14.2381C71.2868 16.7721 67.2904 21.3388 62.6828 26.6039L62.6822 26.6047L62.682 26.6048C54.1816 36.3182 43.6016 48.408 39.4222 54.495C38.3378 54.1729 37.1891 54 36.0001 54H24.0001C17.3727 54 12.0001 59.3726 12.0001 66V120C12.0001 126.627 17.3727 132 24.0001 132H36.0001C40.1228 132 43.7599 129.921 45.9202 126.754C47.7404 127.932 49.7713 128.914 51.9787 129.704C57.0326 131.512 62.0451 132.067 66.2064 131.991L108 131.995C124.531 131.995 132 107.656 132 71.9948ZM56.0214 118.405C50.7171 116.507 48.0054 113.414 48.0001 108.011V66L48.0001 65.9881C48.0009 64.5497 48.2676 63.2753 48.8504 61.9147C49.8988 59.4668 59.4117 48.6136 68.4282 38.3268L68.4289 38.326L68.4291 38.3257C73.0822 33.017 77.603 27.8593 80.7599 24.0856C82.2685 24.1987 83.6904 24.4306 85.1349 24.8512C88.5732 25.8524 90.0001 27.2889 90.0001 29.9948C90.0001 31.8943 89.6157 34.2087 88.861 36.9464C88.297 38.9922 87.5666 41.157 86.5377 43.9187C86.3916 44.3107 86.0273 45.2709 85.6399 46.292L85.6391 46.2942C85.1671 47.5381 84.6611 48.8718 84.4739 49.3781C83.6936 51.4878 83.1796 53.0412 82.828 54.4526C81.3333 60.4529 82.8328 65.9948 90.0001 65.9948H114C118.147 65.9948 120 68.1541 120 71.9948C120 100.739 114.091 119.995 108 119.995H66.0001C65.8222 119.997 65.8222 119.997 65.7785 119.998C63.1524 120.046 59.4639 119.637 56.0214 118.405ZM24.0003 120V66H36.0002V120H24.0003Z" fill="black"/>
</svg>
