<svg width="56" height="56" viewBox="0 0 56 56" fill="none" xmlns="http://www.w3.org/2000/svg">
<path fill-rule="evenodd" clip-rule="evenodd" d="M56 27.9988C56 23.288 52.8348 19.5991 47.6 19.5991H38.9955C39.0205 19.5304 39.0465 19.4598 39.0734 19.3871C39.1512 19.1767 39.3705 18.5986 39.5835 18.0372C39.7721 17.5403 39.9556 17.0566 40.0318 16.8522C40.5641 15.4233 40.9526 14.272 41.267 13.1318C41.7421 11.4085 41.9999 9.85588 41.9999 8.39964C41.9999 4.2782 39.4572 1.71834 35.6951 0.622936C33.9983 0.128875 32.5214 -0.000255475 30.7999 3.79227e-07H29.4573L28.6167 1.04683C27.6671 2.22938 25.8019 4.36062 23.6515 6.81771C19.6847 11.3504 14.7473 16.9921 12.7969 19.8326C12.2909 19.6823 11.7549 19.6016 11.2 19.6016H5.60001C2.50721 19.6016 0 22.1087 0 25.2014V50.4003C0 53.4929 2.50721 56 5.60001 56H11.2C13.1239 56 14.8212 55.0299 15.8294 53.5521C16.6788 54.1015 17.6266 54.56 18.6567 54.9285C21.0152 55.7723 23.3543 56.0314 25.2962 55.9959L44.7999 55.9976C52.5144 55.9976 56 44.64 56 27.9988ZM20.5433 49.6561C18.069 48.7708 16.8036 47.3283 16.8 44.8088V25.2014L16.8 25.1937C16.8007 24.5233 16.9251 23.9292 17.1968 23.2949C17.6861 22.1526 22.1254 17.0881 26.3331 12.2878L26.3331 12.2877L26.3332 12.2877C28.5048 9.81024 30.6146 7.40321 32.0879 5.64211C32.7919 5.69492 33.4555 5.8031 34.1296 5.99939C35.7341 6.46658 36.4 7.13696 36.4 8.39963C36.4 9.28602 36.2206 10.366 35.8684 11.6436C35.6053 12.5983 35.2644 13.6084 34.7842 14.8972C34.7161 15.0801 34.546 15.5282 34.3652 16.0048L34.3648 16.0059C34.1446 16.5863 33.9085 17.2085 33.8211 17.4448C33.457 18.4293 33.2171 19.1541 33.0531 19.8128C32.3555 22.6128 33.0553 25.1989 36.4 25.1989H47.6C49.5355 25.1989 50.4001 26.2065 50.4001 27.9988C50.4001 41.4123 47.6424 50.3978 44.8 50.3978H25.2L25.1935 50.3979L25.1926 50.3979L25.19 50.3979C25.117 50.3991 25.1161 50.3991 25.0966 50.3995C23.8711 50.4215 22.1498 50.2308 20.5433 49.6561ZM5.6001 50.4002V25.2013H11.2001V50.4002H5.6001Z" fill="black"/>
</svg>
